<?xml version="1.0" encoding="utf-8"?>
<!-- Generator: Adobe Illustrator 23.0.1, SVG Export Plug-In . SVG Version: 6.00 Build 0)  -->
<svg version="1.1" id="Layer_1" xmlns="http://www.w3.org/2000/svg" xmlns:xlink="http://www.w3.org/1999/xlink" x="0px" y="0px"
	 viewBox="0 0 1000 1000" style="enable-background:new 0 0 1000 1000;" xml:space="preserve">
<style type="text/css">
	.st0{display:none;fill:#Fff;enable-background:new    ;}
	.st1{font-family:'CenturyGothic';}
	.st2{font-size:835.0633px;}
	.st3{
		fill:#fff;
		
		}
</style>

<g>
	<g>
		<path class="st3" d="M759.1,552.3c-33.1-28.2-92.9-39.2-133.6-24.6c-40.7,14.6-46.9,49.4-13.8,77.5
			c33.1,28.2,92.9,39.2,133.6,24.6C786,615.2,792.2,580.5,759.1,552.3z M735.9,582.8c-3.4,0.4-6.7,0.9-10.1,1.3
			c-2.1,0.2-3.3,0.1-4.1-0.5c-0.4-0.4-0.7-0.9-1.1-1.7c-1.5-3.8-4.1-7.3-7.9-10.5c-0.5-0.4-1.1-0.9-1.7-1.3c-1.3-1-2.5-1.8-4.2-2.6
			c-5.9-2.6-11.8-1.3-11.7,2.7c0,2,0.7,4,1.7,6.1c1.6,3.5,3.5,7,4.4,10.5c3.3,11.2-9.8,19.4-27.9,17.1c-6.5-0.9-12.5-2.8-17.9-5.7
			c-2.4-1.2-4.2-1.6-6.3-0.6c-2.1,0.9-4.4,1.6-6.5,2.3c-1.9,0.7-3.8,0.4-5.4-0.9c-1.2-0.9-2.3-1.9-3.5-2.8c-0.8-0.7-1.6-1.3-2.3-2
			c-1.7-1.4-1.2-2.5,0.7-3.3c1.6-0.6,3.2-1.1,4.6-1.8c3.5-1.3,3.5-1.4,1.3-4c-2.8-3.2-5.3-6.5-6.6-9.9c-1-2.7-0.6-3.2,3.5-3.8
			c3-0.4,5.9-0.8,8.9-1.2c2.2-0.3,3.4-0.2,4.2,0.4c0.5,0.4,0.7,0.9,1,1.8c1.2,3.8,3.8,7.5,7.1,11.2c0.6,0.7,1.2,1.2,1.8,1.8
			c1.9,1.6,4.1,2.9,6.7,4.1c6.8,3,13.7,1.3,13.9-3.3c0.1-1.6-0.5-3-1.2-4.6c-1.7-4.1-4.3-8-5.2-12.2c-1.5-6.6,0.7-12,10-14.8
			c10.5-3.2,21.3-1.5,32.2,3.7c4.5,2.2,4.4,2.2,8.4,0.7c1.3-0.5,2.7-1,4-1.4c3-1,4-0.8,6.5,1.2c0.8,0.6,1.5,1.3,2.3,1.9
			c5.2,4.4,5.2,4.4-1.1,6.7c-4.5,1.6-4.5,1.6-1.6,4.9c2.2,2.6,3.9,5.1,5,7.8C738.8,581.7,738.2,582.6,735.9,582.8z M789,667.1
			c-11.3,4-27.8,1-37-6.8c-9.1-7.8-7.4-17.4,3.8-21.5c11.3-4,27.8-1,37,6.8S800.4,663.1,789,667.1z M614.8,518.7
			c-11.3,4-27.8,1-37-6.8s-7.4-17.4,3.8-21.5c11.3-4,27.8-1,37,6.8C627.7,505,626,514.6,614.8,518.7z M936.1,646.7l-261-222.2
			c-15.1-12.9-42.5-17.9-61-11.2l-173.3,62.1c-18.6,6.7-21.4,22.6-6.3,35.4l260.9,222.3c15.1,12.9,42.5,17.9,61,11.2l173.1-62.2
			C948.3,675.5,951.1,659.6,936.1,646.7z M765.6,712.8c-1.5-2.1-3.4-4.1-5.8-6.2c-15.3-13-43-18.1-61.8-11.4
			c-1.5,0.5-2.7,1.1-4.1,1.7L491.4,524.4c2.4-0.5,4.6-1.1,6.8-1.8c18.8-6.7,21.6-22.8,6.3-35.8c-1.7-1.4-3.5-2.8-5.4-3.9l103.4-37.2
			c1.2,1.5,2.6,2.9,4.3,4.3c15.3,13,43,18.1,61.8,11.4c2.2-0.7,4-1.6,5.8-2.7l203.3,173c-3.3,0.5-6.2,1.2-9.1,2.3
			c-18.8,6.7-21.8,22.8-6.4,35.9c2.3,2,5.1,3.8,7.9,5.4L765.6,712.8z M420.7,543.1c8.2-2.5,19.6,0.2,25.9,5.7L719.4,781L902,715.4
			c7.9-2.9,19.6-0.7,26.1,4.8s5.2,12.3-2.7,15.1L731.3,805c-9.5,3.5-23.5,0.9-31.2-5.7l-5.5-4.6l-3.8-3.3L417.3,558.5
			C410.6,552.8,412.1,545.7,420.7,543.1z M915.5,790.5l-194.1,69.6c-9.5,3.5-23.5,0.9-31.2-5.7l-5.4-4.6l-3.9-3.3L407.4,613.6
			c-6.7-5.6-5.1-12.7,3.5-15.3c8-2.5,19.6,0.2,25.9,5.7l272.7,232.2l182.6-65.5c8-2.8,19.6-0.7,26.1,4.8
			C924.6,780.8,923.5,787.7,915.5,790.5z"/>
	</g>
	<path class="st3" d="M483.7,754.3c-17.8,3.7-36.2,5.7-55,5.7c-146.8,0-265.9-119-265.9-265.9s119-265.9,265.9-265.9
		c111.4,0,206.8,68.5,246.4,165.7l98.9,38.8c-28.4-166-173-292.5-347.1-292.5c-194.5,0-352.1,157.6-352.1,352.1
		s157.6,352.1,352.1,352.1c62.5,0,121.3-16.3,172.2-44.9L483.7,754.3z"/>
</g>
</svg>
